# xmcd CD Database Entry
#
# Track frame offsets:
# 150
# 16881
# 40212
# 56118
# 71174
# 102563
#
# Disc length: 1552 seconds
#
# Revision: 1
# Processed by: cddbd v1.4PL0 Copyright (c) Steve Scherf et al.
# Submitted via: tcd 2.0b
#
DISCID=52060e06
DTITLE=Kathryn Williams - Guardian Exclusive Album Sampler
DYEAR=2002
DGENRE=Folk
TTITLE0=Beatles
TTITLE1=Mirrorball
TTITLE2=Flicker
TTITLE3=Leazes Park
TTITLE4=Soul To Feet
TTITLE5=Data Track
EXTD=YEAR: 2002 ID3G: 80
EXTT0=
EXTT1=
EXTT2=
EXTT3=
EXTT4=
EXTT5=
PLAYORDER=
